<!-- CallAssist App Icon - Static Version (for PNG export) -->
<svg width="1024" height="1024" viewBox="0 0 1024 1024" xmlns="http://www.w3.org/2000/svg">
  <defs>
    <linearGradient id="bgGradient" x1="0%" y1="0%" x2="100%" y2="100%">
      <stop offset="0%" style="stop-color:#007AFF;stop-opacity:1" />
      <stop offset="100%" style="stop-color:#0051D5;stop-opacity:1" />
    </linearGradient>

    <linearGradient id="phoneGradient" x1="0%" y1="0%" x2="0%" y2="100%">
      <stop offset="0%" style="stop-color:#FFFFFF;stop-opacity:1" />
      <stop offset="100%" style="stop-color:#E5E5E5;stop-opacity:1" />
    </linearGradient>

    <filter id="shadow">
      <feDropShadow dx="0" dy="8" stdDeviation="12" flood-opacity="0.3"/>
    </filter>

    <filter id="glow">
      <feGaussianBlur stdDeviation="3" result="coloredBlur"/>
      <feMerge>
        <feMergeNode in="coloredBlur"/>
        <feMergeNode in="SourceGraphic"/>
      </feMerge>
    </filter>
  </defs>

  <!-- Background -->
  <rect width="1024" height="1024" fill="url(#bgGradient)" rx="180"/>

  <!-- Decorative circuit elements (subtle) -->
  <g opacity="0.12">
    <circle cx="780" cy="240" r="8" fill="white"/>
    <line x1="780" y1="240" x2="820" y2="200" stroke="white" stroke-width="3"/>
    <circle cx="820" cy="200" r="6" fill="white"/>
    <line x1="820" y1="200" x2="860" y2="180" stroke="white" stroke-width="3"/>
    <circle cx="860" cy="180" r="5" fill="white"/>

    <circle cx="200" cy="780" r="8" fill="white"/>
    <line x1="200" y1="780" x2="160" y2="820" stroke="white" stroke-width="3"/>
    <circle cx="160" cy="820" r="6" fill="white"/>
  </g>

  <!-- Main Phone Icon -->
  <g transform="translate(512, 512)" filter="url(#shadow)">
    <!-- Phone body -->
    <rect x="-140" y="-220" width="280" height="440" rx="40"
          fill="url(#phoneGradient)"
          stroke="white"
          stroke-width="8"/>

    <!-- Speaker -->
    <rect x="-60" y="-180" width="120" height="12" rx="6" fill="#007AFF" opacity="0.4"/>

    <!-- Screen area -->
    <rect x="-120" y="-140" width="240" height="340" rx="20" fill="white" opacity="0.15"/>

    <!-- AI Waveform visualization -->
    <g transform="translate(0, 20)">
      <rect x="-80" y="-10" width="12" height="70" rx="6" fill="#00D4FF" opacity="0.85"/>
      <rect x="-50" y="5" width="12" height="50" rx="6" fill="#00D4FF" opacity="0.85"/>
      <rect x="-20" y="-25" width="12" height="90" rx="6" fill="#00D4FF" opacity="0.95"/>
      <rect x="10" y="-5" width="12" height="60" rx="6" fill="#00D4FF" opacity="0.85"/>
      <rect x="40" y="10" width="12" height="40" rx="6" fill="#00D4FF" opacity="0.85"/>
      <rect x="70" y="-12" width="12" height="64" rx="6" fill="#00D4FF" opacity="0.85"/>
    </g>

    <!-- Home indicator -->
    <rect x="-50" y="195" width="100" height="8" rx="4" fill="#007AFF" opacity="0.3"/>
  </g>

  <!-- AI indicator (glowing nodes) -->
  <g transform="translate(640, 320)" filter="url(#glow)">
    <circle cx="0" cy="0" r="24" fill="#00FF88" stroke="white" stroke-width="4"/>
    <line x1="0" y1="0" x2="35" y2="-35" stroke="#00FF88" stroke-width="4"/>
    <circle cx="35" cy="-35" r="12" fill="#00FF88" stroke="white" stroke-width="3"/>
    <line x1="0" y1="0" x2="45" y2="10" stroke="#00FF88" stroke-width="4"/>
    <circle cx="45" cy="10" r="12" fill="#00FF88" stroke="white" stroke-width="3"/>
    <line x1="0" y1="0" x2="20" y2="40" stroke="#00FF88" stroke-width="4"/>
    <circle cx="20" cy="40" r="12" fill="#00FF88" stroke="white" stroke-width="3"/>
  </g>
</svg>
